<svg width="236" height="243" viewBox="0 0 236 243" fill="none" xmlns="http://www.w3.org/2000/svg">
<path d="M75.3741 241.437C56.2134 247.825 38.2945 233.098 31.7302 224.936C30.6437 223.658 16.7296 148.107 9.90829 110.492C6.50194 100.697 10.2631 90.4416 12.5695 86.5381C7.03418 81.428 3.16656 73.0532 1.92466 69.5046C-7.01701 52.0452 17.3597 32.0662 30.6657 24.2592C76.6515 1.68973 135.695 -1.11371 159.468 0.305755C178.629 2.00911 191.58 10.9517 195.661 15.2101C214.822 33.0953 210.031 52.471 205.241 59.9232C212.054 64.6074 214.467 71.8112 214.822 74.8275L234.514 179.158C240.476 200.024 227.063 211.628 219.612 214.822L75.3741 241.437Z" fill="#B89A33"/>
<path d="M22.4892 73.7565C16.1101 45.6587 73.6988 28.3458 103.29 23.2016C124.554 18.9444 171.546 13.3035 189.408 24.7981C211.734 39.1663 197.913 56.1954 196.85 58.324C195.787 60.4526 194.724 62.5812 200.571 66.8385C205.249 70.2443 207.482 74.6435 208.013 76.4173L227.15 184.445C230.978 197.643 220.949 205.554 215.456 207.86L68.2057 235C56.7234 234.574 51.7265 225.953 50.6633 221.696C44.1071 185.155 30.7819 111.007 29.9314 106.75C29.0809 102.493 33.4753 96.8166 35.7789 94.5106C37.0192 93.6237 38.2242 91.2113 33.1209 88.6569C28.0177 86.1026 23.9067 77.659 22.4892 73.7565Z" fill="#F7D356" stroke="#F7D356"/>
<ellipse cx="178.272" cy="116.288" rx="13.1853" ry="10.5" transform="rotate(-13.5 178.272 116.288)" fill="#FFA3B8"/>
<rect x="215.083" y="171.313" width="42.628" height="12.1605" rx="6.08025" transform="rotate(132.5 215.083 171.313)" fill="#FFEDAF" stroke="black" stroke-linecap="round" stroke-linejoin="round"/>
<rect x="180.034" y="169.28" width="40.4894" height="12.1605" rx="6.08025" transform="rotate(25.5 180.034 169.28)" fill="#FFEDAF" stroke="black" stroke-linecap="round" stroke-linejoin="round"/>
<ellipse rx="13.2978" ry="15.4179" transform="matrix(0.993578 -0.113147 0.11326 0.993566 162.584 105.374)" fill="black"/>
<ellipse cx="158.328" cy="100.058" rx="4.78724" ry="4.78481" fill="white"/>
<ellipse rx="13.2978" ry="15.4179" transform="matrix(0.993578 -0.113147 0.11326 0.993566 87.6486 118.476)" fill="black"/>
<ellipse cx="83.3934" cy="113.159" rx="4.78724" ry="4.78482" fill="white"/>
<path d="M115.99 141.838C121.945 147.201 136.622 153.374 147.684 135.17" stroke="black" stroke-width="6" stroke-linecap="round"/>
<path d="M54.1588 83.1964C54.493 83.9544 55.3784 84.2979 56.1364 83.9637C56.8944 83.6295 57.238 82.7441 56.9038 81.9861L54.1588 83.1964ZM49.94 49.609C49.8978 48.7817 49.193 48.1452 48.3656 48.1873C47.5382 48.2295 46.9017 48.9343 46.9439 49.7617L49.94 49.609ZM56.9038 81.9861C54.9297 77.5086 50.7052 64.6282 49.94 49.609L46.9439 49.7617C47.7295 65.1825 52.0528 78.4199 54.1588 83.1964L56.9038 81.9861Z" fill="black"/>
<path d="M66.1543 79.3834C66.4885 80.1415 67.3739 80.485 68.132 80.1508C68.89 79.8166 69.2335 78.9312 68.8993 78.1732L66.1543 79.3834ZM61.9355 45.7961C61.8933 44.9688 61.1885 44.3322 60.3611 44.3744C59.5338 44.4165 58.8972 45.1214 58.9394 45.9488L61.9355 45.7961ZM68.8993 78.1732C66.9252 73.6957 62.7007 60.8153 61.9355 45.7961L58.9394 45.9488C59.725 61.3695 64.0484 74.607 66.1543 79.3834L68.8993 78.1732Z" fill="black"/>
<path d="M38.7542 64.8447C38.0362 65.258 37.7893 66.1751 38.2027 66.8931C38.616 67.611 39.5331 67.8579 40.251 67.4446L38.7542 64.8447ZM71.6978 57.0585C72.5159 56.9281 73.0734 56.1592 72.943 55.3411C72.8126 54.523 72.0437 53.9655 71.2256 54.0959L71.6978 57.0585ZM40.251 67.4446C44.4918 65.0029 56.8466 59.4253 71.6978 57.0585L71.2256 54.0959C55.9773 56.526 43.278 62.2401 38.7542 64.8447L40.251 67.4446Z" fill="black"/>
<path d="M40.3924 75.2998C39.6744 75.7132 39.4275 76.6303 39.8409 77.3482C40.2542 78.0662 41.1713 78.3131 41.8893 77.8997L40.3924 75.2998ZM73.336 67.5137C74.1541 67.3833 74.7116 66.6144 74.5812 65.7963C74.4508 64.9782 73.6819 64.4207 72.8638 64.551L73.336 67.5137ZM41.8893 77.8997C46.13 75.4581 58.4848 69.8805 73.336 67.5137L72.8638 64.551C57.6155 66.9812 44.9162 72.6952 40.3924 75.2998L41.8893 77.8997Z" fill="black"/>
<rect x="36.1065" y="76.8846" width="49.1923" height="11.9669" rx="5.98347" transform="rotate(-39.5 36.1065 76.8846)" fill="#FFEDAF" stroke="black" stroke-linecap="round"/>
</svg>
